PathFileType	4	(X/Y/Z)	C:\Users\WrightLab\Desktop\Jo\P2_Trial20.trc
DataRate	CameraRate	NumFrames	NumMarkers	Units	OrigDataRate	OrigDataStartFrame	OrigNumFrames
100.00	100.00	       29	19	mm	100.00	689	       787
Frame#	Time	Headset_Front			Headset_Back			Headset_Left			Headset_Right			Left_Shoulder			Right_Shoulder			Sternum			C7			Left Elbow			Right Elbow			Left Wrist			Right Wrist			Left ASIS			Right ASIS			S2			Left Knee			Right Knee			Left Ankle			Right Ankle			
		X1	Y1	Z1	X2	Y2	Z2	X3	Y3	Z3	X4	Y4	Z4	X5	Y5	Z5	X6	Y6	Z6	X7	Y7	Z7	X8	Y8	Z8	X9	Y9	Z9	X10	Y10	Z10	X11	Y11	Z11	X12	Y12	Z12	X13	Y13	Z13	X14	Y14	Z14	X15	Y15	Z15	X16	Y16	Z16	X17	Y17	Z17	X18	Y18	Z18	X19	Y19	Z19	

689	6.880	-761.13519	1524.53076	-1141.58032				-742.30359	1402.49805	-823.82983				-905.36713	1420.81091	-957.29529	-582.18689	1438.26221	-906.89148	-721.96613	1327.17834	-1016.89612							-474.07697	1118.35217	-938.13013	-862.81750	1018.88446	-979.95129	-418.36188	892.11664	-1041.19666	-747.32227	1027.06042	-1098.06189				-763.36017	921.66077	-831.79413				-505.50562	527.43463	-997.40308				-545.46179	243.25677	-802.92883	
690	6.890	-759.25012	1527.63208	-1147.49329	-888.04706	1574.56799	-987.61310	-739.38525	1403.43372	-830.99261				-902.54437	1422.08557	-963.49963	-579.11072	1439.34021	-917.87311	-720.17987	1328.26575	-1024.48315							-469.98584	1118.28479	-941.99969	-861.33722	1020.07758	-987.29712	-413.74380	891.81787	-1044.30566	-747.19025	1027.65149	-1104.58850				-757.21735	921.66608	-837.11176				-494.08395	532.92035	-1014.15894				-534.43256	242.40013	-825.24420	
691	6.900	-757.21045	1531.06860	-1155.01929	-885.25934	1576.28613	-993.65637	-735.46796	1404.35718	-838.66223				-900.31567	1423.35620	-969.80133	-576.39703	1439.74573	-926.93921	-718.42999	1328.89185	-1032.22888							-466.02466	1118.54333	-947.53149				-408.98166	891.08099	-1046.00134	-747.04218	1027.52307	-1110.49426				-752.25116	923.43188	-843.07147				-487.31644	536.33746	-1035.52905				-521.18097	240.47238	-845.95148	
692	6.910	-755.13690	1534.44287	-1161.74438	-882.36481	1577.96216	-999.38586	-731.31403	1404.90063	-846.34564				-897.94684	1424.68188	-975.69940	-573.68817	1440.02344	-936.46460	-716.82495	1329.17847	-1039.99072				-984.33356	1120.02771	-1031.69800	-461.93042	1118.87769	-953.95142				-403.55899	889.22784	-1047.78333	-746.70209	1027.27356	-1116.03015				-746.85034	923.19250	-848.98071	-640.48950	833.98419	-669.23163	-477.29715	540.74213	-1052.10718				-509.58826	236.36234	-867.67468	
693	6.920	-753.06561	1537.56433	-1169.16296				-727.55994	1405.58118	-854.02759				-895.07678	1425.39648	-982.10712	-571.08264	1437.50342	-934.36633	-715.24677	1329.32544	-1047.79297				-982.37421	1122.41406	-1037.53003	-456.78192	1119.26318	-961.32220				-398.30533	888.10724	-1052.04199							-741.56219	923.91150	-853.93225	-639.41107	830.58014	-667.13391	-469.55280	545.58838	-1067.64233				-496.32532	233.21800	-889.62616	
694	6.930	-750.94037	1540.69373	-1175.76501				-723.76587	1406.84155	-862.70453				-892.89264	1426.30273	-987.92352	-567.03149	1438.07263	-942.02448	-713.56171	1329.10474	-1055.18250				-980.36237	1124.18201	-1043.55615	-453.07581	1118.01746	-965.31537	-1044.20544	997.51544	-818.10626	-393.59592	886.53607	-1053.66516							-735.58661	924.17847	-858.01031	-638.60852	825.60004	-663.73999	-462.34897	549.43561	-1082.94568				-484.17020	227.95602	-911.66534	
695	6.940	-748.72028	1543.80029	-1183.05530				-719.78400	1406.67468	-870.29608				-889.74243	1426.39038	-993.97119	-563.71204	1437.76196	-949.02576	-711.93903	1328.37805	-1062.54443				-978.33075	1125.61804	-1049.71143	-448.81360	1117.92151	-972.56061	-1044.74536	998.27539	-821.82867	-388.36789	884.62109	-1057.03650							-730.98163	925.51697	-864.65961	-637.72113	820.12329	-660.10571	-456.25980	552.98279	-1097.29639				-470.09662	222.16336	-933.19830	
696	6.950	-746.57098	1546.76160	-1190.29321				-715.06232	1407.52014	-878.16382				-886.47113	1426.56018	-999.85596	-560.31970	1436.31641	-955.13855	-710.03589	1327.89038	-1070.22791				-976.21375	1126.16333	-1054.61475	-444.27319	1117.10181	-977.96881	-1045.79919	998.20618	-825.56238	-383.47794	882.67743	-1057.54749							-724.61450	925.83429	-869.92902	-636.52960	814.67035	-655.73016	-450.14786	557.19104	-1113.29639				-457.43753	213.68849	-954.94019	
697	6.960	-744.15692	1549.97119	-1197.57751	-866.63196	1584.40222	-1029.04651	-709.69525	1407.68713	-885.66034				-883.99738	1426.40002	-1005.86383	-557.17200	1438.73059	-986.57751	-707.91205	1327.19531	-1078.29370				-974.00757	1126.44299	-1059.07581	-441.88071	1115.52527	-987.60406				-377.99307	880.92877	-1059.78101	-1046.55542	998.35321	-826.55066				-719.64752	926.94446	-875.79999	-610.82257	1019.34406	-1134.08057	-444.40845	558.69476	-1128.10742				-441.40598	207.89198	-978.56433	
698	6.970	-741.91248	1552.68884	-1204.90552	-863.26337	1585.05139	-1035.15527	-704.99390	1408.24255	-893.65363				-880.77130	1426.14404	-1011.25690	-553.71130	1438.07288	-996.77399	-705.68085	1326.32593	-1085.86853				-971.34009	1126.73804	-1063.47961	-438.65677	1114.62842	-996.15533				-372.73050	878.95319	-1060.83142	-1047.21423	997.99744	-829.53229				-713.09222	926.47443	-879.70984				-441.02884	561.45923	-1138.97473				-426.63354	197.78319	-1000.92981	
699	6.980	-739.62347	1555.56714	-1211.73877				-700.51202	1408.71216	-903.29474				-877.29114	1425.66394	-1017.02350	-550.20996	1437.41858	-1006.95374	-703.41748	1325.37268	-1094.18909				-968.63995	1126.50977	-1067.01758	-433.83371	1113.57666	-1000.44196	-745.81073	1015.89258	-1162.67468	-366.68726	877.08789	-1063.95471	-608.58588	1015.70477	-1147.71753				-708.47498	926.71722	-884.99323				-436.69711	564.29395	-1152.21545				-410.78488	189.41454	-1025.83679	
700	6.990							-695.08319	1408.94690	-910.88684				-873.32819	1425.35303	-1022.40057	-545.72083	1436.12866	-1017.05774	-701.06256	1324.05322	-1101.60486				-965.40613	1126.59106	-1069.76880	-428.56128	1113.03577	-1003.46790	-744.55621	1015.08929	-1166.57751	-361.10995	875.17322	-1065.16565							-702.38031	926.76379	-890.62695				-434.02643	565.58167	-1163.29602				-393.84882	181.37083	-1053.26208	
701	7.000	-852.37634	1586.30151	-1052.59558				-688.93500	1409.07690	-919.21307				-869.75006	1424.76318	-1027.93787	-542.61902	1436.76941	-1031.07043	-698.70648	1322.70813	-1109.22510				-962.28918	1126.37024	-1072.38013	-424.95322	1111.27014	-1013.84253	-743.41870	1014.47607	-1172.44666	-356.19540	873.35077	-1066.68372	-606.39868	1011.96570	-1161.02173				-698.32184	926.54126	-896.41943				-432.36874	566.98804	-1173.42212				-379.76489	171.51695	-1082.13464	
702	7.010	-848.45880	1586.58020	-1058.58740				-682.99701	1408.91602	-927.74982				-866.11261	1424.40662	-1033.28723	-538.38330	1435.09863	-1039.54724	-696.16058	1321.54443	-1116.72668							-420.99408	1111.61816	-1019.10901	-742.32965	1012.77582	-1175.67249	-350.62128	872.00574	-1068.02429	-605.28235	1010.45734	-1167.93994				-691.34088	926.82800	-902.52771				-430.40244	566.26471	-1181.27368				-363.00116	165.00713	-1111.04858	
703	7.020	-844.53870	1586.29431	-1063.66589				-677.19122	1409.25195	-936.81201				-861.74243	1423.79309	-1038.06763	-534.54468	1435.79736	-1054.78931	-693.69476	1319.79822	-1123.61450							-414.60629	1111.83459	-1030.96423	-740.74261	1012.43188	-1181.34839	-345.12012	870.92468	-1071.71924							-686.43195	925.92236	-908.29443				-429.36914	566.17889	-1190.33508				-345.79153	159.82104	-1141.44873	
704	7.030							-671.66479	1408.90137	-945.08118				-857.42743	1423.11060	-1042.49609	-530.60907	1434.37354	-1063.96399	-691.01263	1318.57239	-1131.04443							-411.10800	1111.60291	-1035.45898	-739.35419	1011.23242	-1185.78857	-339.45187	869.89673	-1072.93091							-680.31274	924.54755	-913.77277				-428.83102	564.33441	-1197.76855				-330.91455	153.65427	-1176.58533	
705	7.040							-664.59674	1408.10376	-953.41986				-852.82446	1422.35474	-1046.86414				-688.36670	1317.10461	-1137.64429							-405.21591	1111.70630	-1043.38538	-737.47455	1010.52759	-1189.92224	-333.89362	869.49677	-1076.27222							-675.91443	924.91241	-919.81781				-429.74237	561.15070	-1203.12329				-316.53259	149.73413	-1207.66382	
706	7.050													-848.13129	1421.55322	-1050.87549				-685.47906	1315.92969	-1144.78430							-399.13898	1112.66907	-1052.64722	-735.45178	1010.22864	-1195.60864	-328.12640	868.56946	-1077.74890							-669.28943	922.95306	-925.35419				-430.80371	557.47351	-1209.89099				-302.49963	149.90273	-1237.65576	
707	7.060													-842.91437	1420.93420	-1054.70593				-682.58929	1314.60779	-1151.47034							-395.17691	1112.64697	-1062.38037	-733.34235	1009.58691	-1199.04102	-322.88110	869.23999	-1080.38599							-663.99524	922.46387	-932.76392				-433.26462	552.03247	-1215.22412				-290.11890	149.92204	-1268.47046	
708	7.070													-837.51276	1419.84021	-1057.74805				-679.57111	1313.52600	-1158.11414							-388.05627	1113.50830	-1069.27356	-731.05023	1009.82782	-1205.05920	-317.44611	869.38965	-1084.19324							-658.40869	921.62408	-942.22113				-435.98203	545.46509	-1220.99011				-282.17441	151.34137	-1300.18335	
709	7.080													-831.93335	1418.76074	-1060.59973				-676.56287	1312.32935	-1164.84143							-382.16904	1114.52844	-1077.90613	-728.94983	1009.42419	-1209.33325	-312.06650	869.35559	-1089.34802							-651.92792	920.72333	-947.07465				-437.34818	540.40808	-1224.79175				-274.98828	155.63925	-1331.73975	
710	7.090													-826.10211	1418.21729	-1063.37646				-673.51038	1311.15735	-1171.17236							-377.04681	1113.66370	-1090.03857	-726.74146	1008.72430	-1212.46240	-306.96304	869.85297	-1097.81091							-644.85315	919.80383	-952.93921				-440.63400	533.41547	-1229.00940				-270.39035	161.67357	-1360.21790	
711	7.100													-819.43652	1417.28918	-1065.75342				-670.28040	1310.51660	-1178.50134							-370.73502	1115.53528	-1097.61047	-724.64661	1008.25818	-1216.71863	-301.82755	870.38708	-1105.24463							-637.30023	919.74481	-958.03766				-442.82953	527.23083	-1231.84436				-267.97122	168.14958	-1385.21826	
712	7.110													-812.98553	1416.40173	-1068.24219				-667.19281	1309.15137	-1184.63672							-365.30197	1115.28748	-1106.63440	-722.52765	1008.01367	-1221.76233	-296.70575	870.18481	-1111.98767							-631.52240	917.72028	-969.52954				-445.93085	522.08331	-1234.52112				-265.87357	179.11650	-1409.37085	
713	7.120													-806.40686	1415.32361	-1071.13208				-663.97327	1308.24854	-1191.32190							-365.44296	1112.61169	-1121.07483	-720.79211	1006.12262	-1223.49609	-291.19003	869.40192	-1121.63892							-623.07916	917.60693	-972.21918				-447.89026	518.04315	-1236.95398				-267.09821	186.00089	-1429.09753	
714	7.130													-799.17126	1414.66663	-1073.57275													-357.63239	1112.28491	-1133.07959				-285.49451	869.49738	-1130.72009							-614.43933	917.27704	-978.12140				-450.11166	514.82825	-1243.00232				-269.13776	193.12166	-1447.40527	
715	7.140													-792.61823	1413.96619	-1076.05139													-349.99509	1110.73303	-1151.07275				-279.36990	867.95416	-1139.70740							-605.29041	916.26672	-984.44794				-452.92706	512.94757	-1249.75415				-271.61157	198.86258	-1464.61060	
716	7.150													-784.88489	1412.60107	-1078.47888													-345.11169	1109.31750	-1161.93237				-273.10892	866.90875	-1153.27722							-596.21667	915.55341	-991.69281				-455.06088	511.67261	-1258.41675				-275.61359	202.14023	-1481.19446	
717	7.160													-777.02191	1411.48914	-1081.87122													-340.49884	1108.88245	-1172.29248				-267.24930	866.31641	-1164.34546							-587.39722	915.13098	-999.78003				-452.85513	512.24109	-1267.56995				-276.77307	205.13795	-1498.73975	
